# Blender 3.2.2
# www.blender.org
mtllib phonebox.mtl
o Cube
v -1.341841 -0.556483 4.028914
v 0.000000 -0.048046 1.696229
v -1.341841 0.358326 4.028914
v -1.341841 -0.556483 -4.028914
v 0.210480 -0.048046 1.716960
v -1.341841 0.358326 -4.028914
v 0.412871 -0.048046 1.778354
v 1.341841 -0.556483 4.028914
v 1.341841 0.358326 4.028914
v 1.341841 -0.556483 -4.028914
v 0.599395 -0.048046 1.878054
v 1.341841 0.358326 -4.028914
v 0.762886 -0.048046 2.012227
v 0.897059 -0.048046 2.175717
v 0.996758 -0.048046 2.362242
v 1.058153 -0.048046 2.564633
v 1.078883 -0.048046 2.775113
v 1.058153 -0.048046 2.985592
v 0.996758 -0.048046 3.187983
v 0.897059 -0.048046 3.374508
v 0.762886 -0.048046 3.537998
v 0.599395 -0.048046 3.672171
v 0.412871 -0.048046 3.771871
v 0.210480 -0.048046 3.833266
v -0.000000 -0.048046 3.853996
v -0.210480 -0.048046 3.833266
v -0.412871 -0.048046 3.771871
v -0.599396 -0.048046 3.672171
v -0.762886 -0.048046 3.537998
v -0.897059 -0.048046 3.374508
v -0.996758 -0.048046 3.187984
v -1.058153 -0.048046 2.985592
v -1.078883 -0.048046 2.775113
v -1.058153 -0.048046 2.564633
v -0.996758 -0.048046 2.362242
v -0.897059 -0.048046 2.175717
v -0.762886 -0.048046 2.012227
v -0.599396 -0.048046 1.878054
v -0.412871 -0.048046 1.778354
v -0.210480 -0.048046 1.716960
v 0.000000 -0.048046 -3.886975
v 0.210480 -0.048046 -3.866245
v 0.412871 -0.048046 -3.804850
v 0.599395 -0.048046 -3.705150
v 0.762886 -0.048046 -3.570977
v 0.897059 -0.048046 -3.407487
v 0.996758 -0.048046 -3.220963
v 1.058153 -0.048046 -3.018572
v 1.078883 -0.048046 -2.808092
v 1.058153 -0.048046 -2.597613
v 0.996758 -0.048046 -2.395221
v 0.897059 -0.048046 -2.208697
v 0.762886 -0.048046 -2.045207
v 0.599395 -0.048046 -1.911034
v 0.412871 -0.048046 -1.811334
v 0.210480 -0.048046 -1.749939
v -0.000000 -0.048046 -1.729209
v -0.210480 -0.048046 -1.749939
v -0.412871 -0.048046 -1.811334
v -0.599396 -0.048046 -1.911034
v -0.762886 -0.048046 -2.045207
v -0.897059 -0.048046 -2.208696
v -0.996758 -0.048046 -2.395221
v -1.058153 -0.048046 -2.597613
v -1.078883 -0.048046 -2.808092
v -1.058153 -0.048046 -3.018572
v -0.996758 -0.048046 -3.220963
v -0.897059 -0.048046 -3.407487
v -0.762886 -0.048046 -3.570977
v -0.599396 -0.048046 -3.705150
v -0.412871 -0.048046 -3.804850
v -0.210480 -0.048046 -3.866245
v -1.078883 0.358326 2.775113
v -1.078883 0.358326 -2.808092
v -1.058153 0.358326 -2.597613
v -1.058153 0.358326 2.564633
v -1.058153 0.358326 2.985592
v -1.058153 0.358326 -3.018572
v -0.897059 0.358326 -2.208696
v -0.897059 0.358326 2.175717
v -0.897059 0.358326 -3.407487
v -0.762886 0.358326 -3.570977
v -0.762886 0.358326 -2.045207
v -0.762886 0.358326 2.012227
v -0.996758 0.358326 2.362242
v -0.996758 0.358326 -2.395221
v -0.996758 0.358326 -3.220963
v -0.599396 0.358326 -1.911034
v -0.599396 0.358326 -3.705150
v -0.412871 0.358326 -1.811334
v -0.412871 0.358326 -3.804850
v 0.210480 0.358326 -1.749939
v 0.210480 0.358326 -3.866245
v -0.000000 0.358326 -1.729209
v 0.000000 0.358326 -3.886975
v -0.210480 0.358326 -1.749939
v -0.210480 0.358326 -3.866245
v 0.412871 0.358326 -1.811334
v 0.412871 0.358326 -3.804850
v 0.599395 0.358326 -3.705150
v 0.599395 0.358326 -1.911034
v 0.897059 0.358326 -3.407487
v 0.762886 0.358326 -3.570977
v 1.008321 0.358326 -3.182846
v 0.996758 0.358326 -3.220963
v -0.996758 0.358326 3.187984
v -1.008321 0.358326 3.149867
v -0.762886 0.358326 3.537998
v -0.897059 0.358326 3.374508
v -0.599396 0.358326 3.672171
v -0.599396 0.358326 1.878054
v -0.412871 0.358326 1.778354
v -0.412871 0.358326 3.771871
v -0.210480 0.358326 1.716960
v -0.210480 0.358326 3.833266
v -0.000000 0.358326 3.853996
v 0.000000 0.358326 1.696229
v 0.210480 0.358326 3.833266
v 0.210480 0.358326 1.716960
v 0.412871 0.358326 3.771871
v 0.412871 0.358326 1.778354
v 0.599395 0.358326 1.878054
v 0.762886 0.358326 -2.045207
v 0.762886 0.358326 2.012227
v 0.762886 0.358326 3.537998
v 0.996758 0.358326 2.362242
v 0.897059 0.358326 -2.208697
v 0.897059 0.358326 3.374508
v 0.897059 0.358326 2.175717
v 1.058153 0.358326 2.564633
v 1.058153 0.358326 -2.597613
v 0.996758 0.358326 3.187983
v 0.996758 0.358326 -2.395221
v 1.078883 0.358326 -2.808092
v 1.078883 0.358326 2.775113
v 1.058153 0.358326 -3.018572
v 1.058153 0.358326 2.985592
v 0.599395 0.358326 3.672171
vn -1.0000 -0.0000 -0.0000
vn -0.0000 -0.0000 -1.0000
vn 1.0000 -0.0000 -0.0000
vn -0.0000 -0.0000 1.0000
vn -0.0000 -1.0000 -0.0000
vn -0.0000 1.0000 -0.0000
vn -0.0980 -0.0000 0.9952
vn -0.2903 -0.0000 0.9569
vn -0.4714 -0.0000 0.8819
vn -0.6344 -0.0000 0.7730
vn -0.7730 -0.0000 0.6344
vn -0.8819 -0.0000 0.4714
vn -0.9569 -0.0000 0.2903
vn -0.9952 -0.0000 0.0980
vn -0.9952 -0.0000 -0.0980
vn -0.9569 -0.0000 -0.2903
vn -0.8819 -0.0000 -0.4714
vn -0.7730 -0.0000 -0.6344
vn -0.6344 -0.0000 -0.7730
vn -0.4714 -0.0000 -0.8819
vn -0.2903 -0.0000 -0.9569
vn -0.0980 -0.0000 -0.9952
vn 0.0980 -0.0000 -0.9952
vn 0.2903 -0.0000 -0.9569
vn 0.4714 -0.0000 -0.8819
vn 0.6344 -0.0000 -0.7730
vn 0.7730 -0.0000 -0.6344
vn 0.8819 -0.0000 -0.4714
vn 0.9569 -0.0000 -0.2903
vn 0.9952 -0.0000 -0.0980
vn 0.9952 -0.0000 0.0980
vn 0.9569 -0.0000 0.2903
vn 0.8819 -0.0000 0.4714
vn 0.7730 -0.0000 0.6344
vn 0.6344 -0.0000 0.7730
vn 0.4714 -0.0000 0.8819
vn 0.2903 -0.0000 0.9569
vn 0.0980 -0.0000 0.9952
vt 0.375000 0.000000
vt 0.375000 1.000000
vt 0.125000 0.750000
vt 1.000000 0.500000
vt 0.000000 0.500000
vt 0.750000 0.490000
vt 0.625000 0.000000
vt 0.625000 1.000000
vt 0.875000 0.750000
vt 0.375000 0.250000
vt 0.125000 0.500000
vt 0.968750 0.500000
vt 0.796822 0.485388
vt 0.625000 0.250000
vt 0.875000 0.500000
vt 0.937500 0.500000
vt 0.841844 0.471731
vt 0.375000 0.750000
vt 0.625000 0.750000
vt 0.375000 0.500000
vt 0.906250 0.500000
vt 0.883337 0.449553
vt 0.625000 0.500000
vt 0.875000 0.500000
vt 0.919706 0.419706
vt 0.843750 0.500000
vt 0.949553 0.383337
vt 0.812500 0.500000
vt 0.971731 0.341844
vt 0.781250 0.500000
vt 0.985388 0.296822
vt 0.750000 0.500000
vt 0.990000 0.250000
vt 0.718750 0.500000
vt 0.985388 0.203178
vt 0.687500 0.500000
vt 0.971731 0.158156
vt 0.656250 0.500000
vt 0.949553 0.116663
vt 0.625000 0.500000
vt 0.919706 0.080294
vt 0.593750 0.500000
vt 0.883337 0.050447
vt 0.562500 0.500000
vt 0.841844 0.028269
vt 0.531250 0.500000
vt 0.796822 0.014612
vt 0.500000 0.500000
vt 0.750000 0.010000
vt 0.468750 0.500000
vt 0.703178 0.014612
vt 0.437500 0.500000
vt 0.658156 0.028269
vt 0.406250 0.500000
vt 0.616663 0.050447
vt 0.375000 0.500000
vt 0.580294 0.080294
vt 0.343750 0.500000
vt 0.550447 0.116663
vt 0.312500 0.500000
vt 0.528269 0.158156
vt 0.281250 0.500000
vt 0.514612 0.203178
vt 0.250000 0.500000
vt 0.510000 0.250000
vt 0.218750 0.500000
vt 0.514612 0.296822
vt 0.187500 0.500000
vt 0.528269 0.341844
vt 0.156250 0.500000
vt 0.550447 0.383337
vt 0.125000 0.500000
vt 0.580294 0.419706
vt 0.093750 0.500000
vt 0.616663 0.449553
vt 0.062500 0.500000
vt 0.658156 0.471731
vt 0.031250 0.500000
vt 0.703178 0.485388
vt 1.000000 0.500000
vt 0.000000 0.500000
vt 0.750000 0.490000
vt 0.968750 0.500000
vt 0.796822 0.485388
vt 0.937500 0.500000
vt 0.841844 0.471731
vt 0.906250 0.500000
vt 0.883337 0.449553
vt 0.875000 0.500000
vt 0.919706 0.419706
vt 0.843750 0.500000
vt 0.949553 0.383337
vt 0.812500 0.500000
vt 0.971731 0.341844
vt 0.781250 0.500000
vt 0.985388 0.296822
vt 0.750000 0.500000
vt 0.990000 0.250000
vt 0.718750 0.500000
vt 0.985388 0.203178
vt 0.687500 0.500000
vt 0.971731 0.158156
vt 0.656250 0.500000
vt 0.949553 0.116663
vt 0.625000 0.500000
vt 0.919706 0.080294
vt 0.593750 0.500000
vt 0.883337 0.050447
vt 0.562500 0.500000
vt 0.841844 0.028269
vt 0.531250 0.500000
vt 0.796822 0.014612
vt 0.500000 0.500000
vt 0.750000 0.010000
vt 0.468750 0.500000
vt 0.703178 0.014612
vt 0.437500 0.500000
vt 0.658156 0.028269
vt 0.406250 0.500000
vt 0.616663 0.050447
vt 0.375000 0.500000
vt 0.580294 0.080294
vt 0.343750 0.500000
vt 0.550447 0.116663
vt 0.312500 0.500000
vt 0.528269 0.158156
vt 0.281250 0.500000
vt 0.514612 0.203178
vt 0.250000 0.500000
vt 0.510000 0.250000
vt 0.218750 0.500000
vt 0.514612 0.296822
vt 0.187500 0.500000
vt 0.528269 0.341844
vt 0.156250 0.500000
vt 0.550447 0.383337
vt 0.125000 0.500000
vt 0.580294 0.419706
vt 0.093750 0.500000
vt 0.616663 0.449553
vt 0.062500 0.500000
vt 0.658156 0.471731
vt 0.031250 0.500000
vt 0.703178 0.485388
vt 0.850504 0.711100
vt 0.250000 0.594165
vt 0.850504 0.537877
vt 0.250000 0.594165
vt 0.848573 0.544407
vt 0.281250 0.594165
vt 0.848573 0.704570
vt 0.218750 0.594165
vt 0.848573 0.717630
vt 0.281250 0.594165
vt 0.848573 0.531347
vt 0.218750 0.594165
vt 0.833566 0.556474
vt 0.343750 0.594165
vt 0.833566 0.692503
vt 0.156250 0.594165
vt 0.833566 0.519280
vt 0.156250 0.594165
vt 0.821067 0.514208
vt 0.125000 0.594165
vt 0.821067 0.561546
vt 0.375000 0.594165
vt 0.821067 0.687431
vt 0.125000 0.594165
vt 0.842854 0.698290
vt 0.187500 0.594165
vt 0.842854 0.550687
vt 0.312500 0.594165
vt 0.842854 0.525067
vt 0.187500 0.594165
vt 0.805837 0.565709
vt 0.406250 0.594165
vt 0.805837 0.510045
vt 0.093750 0.594165
vt 0.788461 0.568802
vt 0.437500 0.594165
vt 0.788461 0.506952
vt 0.062500 0.594165
vt 0.730393 0.570707
vt 0.531250 0.594165
vt 0.730393 0.505047
vt 0.968750 0.594165
vt 0.750000 0.571350
vt 0.500000 0.594165
vt 0.750000 0.504404
vt 1.000000 0.594165
vt 0.000000 0.594165
vt 0.769607 0.570707
vt 0.468750 0.594165
vt 0.769607 0.505047
vt 0.031250 0.594165
vt 0.711539 0.568802
vt 0.562500 0.594165
vt 0.711539 0.506952
vt 0.937500 0.594165
vt 0.694163 0.510045
vt 0.906250 0.594165
vt 0.694163 0.565709
vt 0.593750 0.594165
vt 0.666434 0.519280
vt 0.843750 0.594165
vt 0.678933 0.514208
vt 0.875000 0.594165
vt 0.656069 0.526250
vt 0.806615 0.594165
vt 0.657146 0.525067
vt 0.812500 0.594165
vt 0.842854 0.723909
vt 0.312500 0.594165
vt 0.843931 0.722727
vt 0.306615 0.594165
vt 0.821067 0.734769
vt 0.375000 0.594165
vt 0.833566 0.729697
vt 0.343750 0.594165
vt 0.805837 0.738932
vt 0.406250 0.594165
vt 0.805837 0.683268
vt 0.093750 0.594165
vt 0.788461 0.680175
vt 0.062500 0.594165
vt 0.788461 0.742025
vt 0.437500 0.594165
vt 0.769607 0.678270
vt 0.031250 0.594165
vt 0.769607 0.743930
vt 0.468750 0.594165
vt 0.750000 0.744573
vt 0.500000 0.594165
vt 0.750000 0.677627
vt 1.000000 0.594165
vt 0.000000 0.594165
vt 0.730393 0.743930
vt 0.531250 0.594165
vt 0.730393 0.678270
vt 0.968750 0.594165
vt 0.711539 0.742025
vt 0.562500 0.594165
vt 0.711539 0.680175
vt 0.937500 0.594165
vt 0.694163 0.683268
vt 0.906250 0.594165
vt 0.678933 0.561546
vt 0.625000 0.594165
vt 0.678933 0.687431
vt 0.875000 0.594165
vt 0.678933 0.734769
vt 0.625000 0.594165
vt 0.657146 0.698290
vt 0.812500 0.594165
vt 0.666434 0.556474
vt 0.656250 0.594165
vt 0.666434 0.729697
vt 0.656250 0.594165
vt 0.666434 0.692503
vt 0.843750 0.594165
vt 0.651427 0.704570
vt 0.781250 0.594165
vt 0.651427 0.544407
vt 0.718750 0.594165
vt 0.657146 0.723909
vt 0.687500 0.594165
vt 0.657146 0.550687
vt 0.687500 0.594165
vt 0.649496 0.537877
vt 0.750000 0.594165
vt 0.649496 0.711100
vt 0.750000 0.594165
vt 0.651427 0.531347
vt 0.781250 0.594165
vt 0.651427 0.717630
vt 0.718750 0.594165
vt 0.694163 0.738932
vt 0.593750 0.594165
s 0
usemtl 
f 1/1/1 3/7/1 6/14/1 4/10/1
f 4/10/2 6/14/2 12/23/2 10/20/2
f 10/20/3 12/23/3 9/19/3 8/18/3
f 8/18/4 9/19/4 3/8/4 1/2/4
f 4/11/5 10/20/5 8/18/5 1/3/5
f 6/15/6 3/9/6 107/214/6 77/153/6 73/145/6 76/151/6 85/169/6 80/159/6 84/167/6 111/222/6 112/224/6 114/228/6 117/234/6 119/239/6 121/243/6 122/245/6 124/249/6 129/259/6 126/253/6 130/261/6 135/271/6 137/275/6 132/265/6 9/19/6 12/23/6 104/208/6 136/273/6 134/269/6 131/263/6 133/267/6 127/255/6 123/247/6 101/202/6 98/196/6 92/183/6 94/187/6 96/192/6 90/179/6 88/175/6 83/165/6 79/157/6 86/171/6 75/149/6 74/147/6 78/155/6 87/173/6
f 104/208/6 12/23/6 6/15/6 87/173/6 81/161/6 82/163/6 89/177/6 91/181/6 97/194/6 95/189/6 93/185/6 99/198/6 100/200/6 103/206/6 102/204/6 105/210/6
f 106/212/6 107/214/6 3/9/6 9/19/6 132/265/6 128/257/6 125/251/6 138/277/6 120/241/6 118/237/6 116/232/6 115/230/6 113/226/6 110/220/6 108/216/6 109/218/6
f 117/235/7 2/4/7 5/12/7 119/240/7
f 119/240/8 5/12/8 7/16/8 121/244/8
f 121/244/9 7/16/9 11/21/9 122/246/9
f 122/246/10 11/21/10 13/24/10 124/250/10
f 124/250/11 13/24/11 14/26/11 129/260/11
f 129/260/12 14/26/12 15/28/12 126/254/12
f 15/28/13 16/30/13 130/262/13 126/254/13
f 16/30/14 17/32/14 135/272/14 130/262/14
f 17/32/15 18/34/15 137/276/15 135/272/15
f 18/34/16 19/36/16 132/266/16 137/276/16
f 19/36/17 20/38/17 128/258/17 132/266/17
f 20/38/18 21/40/18 125/252/18 128/258/18
f 21/40/19 22/42/19 138/278/19 125/252/19
f 22/42/20 23/44/20 120/242/20 138/278/20
f 23/44/21 24/46/21 118/238/21 120/242/21
f 24/46/22 25/48/22 116/233/22 118/238/22
f 25/48/23 26/50/23 115/231/23 116/233/23
f 26/50/24 27/52/24 113/227/24 115/231/24
f 27/52/25 28/54/25 110/221/25 113/227/25
f 28/54/26 29/56/26 108/217/26 110/221/26
f 29/56/27 30/58/27 109/219/27 108/217/27
f 30/58/28 31/60/28 106/213/28 109/219/28
f 106/213/29 31/60/29 32/62/29 77/154/29 107/215/29
f 77/154/30 32/62/30 33/64/30 73/146/30
f 73/146/31 33/64/31 34/66/31 76/152/31
f 76/152/32 34/66/32 35/68/32 85/170/32
f 85/170/33 35/68/33 36/70/33 80/160/33
f 80/160/34 36/70/34 37/72/34 84/168/34
f 84/168/35 37/72/35 38/74/35 111/223/35
f 111/223/36 38/74/36 39/76/36 112/225/36
f 112/225/37 39/76/37 40/78/37 114/229/37
f 114/229/38 40/78/38 2/5/38 117/236/38
f 32/63/6 31/61/6 30/59/6 29/57/6 28/55/6 27/53/6 26/51/6 25/49/6 24/47/6 23/45/6 22/43/6 21/41/6 20/39/6 19/37/6 18/35/6 17/33/6 16/31/6 15/29/6 14/27/6 13/25/6 11/22/6 7/17/6 5/13/6 2/6/6 40/79/6 39/77/6 38/75/6 37/73/6 36/71/6 35/69/6 34/67/6 33/65/6
f 95/190/7 41/80/7 42/83/7 93/186/7
f 93/186/8 42/83/8 43/85/8 99/199/8
f 99/199/9 43/85/9 44/87/9 100/201/9
f 100/201/10 44/87/10 45/89/10 103/207/10
f 103/207/11 45/89/11 46/91/11 102/205/11
f 102/205/12 46/91/12 47/93/12 105/211/12
f 47/93/13 48/95/13 136/274/13 104/209/13 105/211/13
f 48/95/14 49/97/14 134/270/14 136/274/14
f 49/97/15 50/99/15 131/264/15 134/270/15
f 50/99/16 51/101/16 133/268/16 131/264/16
f 51/101/17 52/103/17 127/256/17 133/268/17
f 52/103/18 53/105/18 123/248/18 127/256/18
f 53/105/19 54/107/19 101/203/19 123/248/19
f 54/107/20 55/109/20 98/197/20 101/203/20
f 55/109/21 56/111/21 92/184/21 98/197/21
f 56/111/22 57/113/22 94/188/22 92/184/22
f 57/113/23 58/115/23 96/193/23 94/188/23
f 58/115/24 59/117/24 90/180/24 96/193/24
f 59/117/25 60/119/25 88/176/25 90/180/25
f 60/119/26 61/121/26 83/166/26 88/176/26
f 61/121/27 62/123/27 79/158/27 83/166/27
f 62/123/28 63/125/28 86/172/28 79/158/28
f 86/172/29 63/125/29 64/127/29 75/150/29
f 75/150/30 64/127/30 65/129/30 74/148/30
f 74/148/31 65/129/31 66/131/31 78/156/31
f 78/156/32 66/131/32 67/133/32 87/174/32
f 87/174/33 67/133/33 68/135/33 81/162/33
f 81/162/34 68/135/34 69/137/34 82/164/34
f 82/164/35 69/137/35 70/139/35 89/178/35
f 89/178/36 70/139/36 71/141/36 91/182/36
f 91/182/37 71/141/37 72/143/37 97/195/37
f 97/195/38 72/143/38 41/81/38 95/191/38
f 64/128/6 63/126/6 62/124/6 61/122/6 60/120/6 59/118/6 58/116/6 57/114/6 56/112/6 55/110/6 54/108/6 53/106/6 52/104/6 51/102/6 50/100/6 49/98/6 48/96/6 47/94/6 46/92/6 45/90/6 44/88/6 43/86/6 42/84/6 41/82/6 72/144/6 71/142/6 70/140/6 69/138/6 68/136/6 67/134/6 66/132/6 65/130/6
