# Blender 3.4.1
# www.blender.org
mtllib phone.mtl
o Circle
v 0.000000 0.000000 1.786119
v -0.500000 0.000000 1.920094
v -0.866025 0.000000 2.286119
v -1.000000 0.000000 2.786119
v -0.866025 0.000000 3.286119
v -0.500000 0.000000 3.652144
v 0.000000 0.000000 3.786119
v 0.500000 0.000000 3.652144
v 0.866025 0.000000 3.286119
v 1.000000 0.000000 2.786119
v 0.866025 0.000000 2.286119
v 0.500000 0.000000 1.920094
v -0.500000 0.898575 1.920094
v 0.000000 0.898575 1.786119
v -0.866025 0.356719 2.286119
v -1.000000 0.356719 2.786119
v -0.866025 0.356719 3.286119
v -0.500000 0.356719 3.652144
v 0.000000 0.356719 3.786119
v 0.500000 0.356719 3.652144
v 0.866025 0.356719 3.286119
v 1.000000 0.356719 2.786119
v 0.866025 0.356719 2.286119
v 0.500000 0.898575 1.920094
v -0.304856 1.404919 1.934475
v -0.000000 1.404919 1.852789
v -0.528026 1.119037 2.157645
v -0.609712 1.119037 2.462501
v -0.528026 1.119037 2.767357
v -0.304856 1.119037 2.990527
v -0.000000 1.119037 3.072213
v 0.304856 1.119037 2.990527
v 0.528026 1.119037 2.767357
v 0.609712 1.119037 2.462501
v 0.528026 1.119037 2.157645
v 0.304856 1.404919 1.934475
v -0.000000 1.324762 2.462501
v 0.304856 1.324762 2.462501
v -0.304856 1.324762 2.462501
v -0.500000 1.009141 0.000000
v 0.000000 1.009141 0.000000
v 0.500000 1.009141 0.000000
v -0.304856 1.466926 0.000000
v -0.000000 1.466926 0.000000
v 0.304856 1.466926 0.000000
v 0.000000 0.000000 -1.786119
v -0.500000 0.000000 -1.920094
v -0.866025 0.000000 -2.286119
v -1.000000 0.000000 -2.786119
v -0.866025 0.000000 -3.286119
v -0.500000 0.000000 -3.652144
v 0.000000 0.000000 -3.786119
v 0.500000 0.000000 -3.652144
v 0.866025 0.000000 -3.286119
v 1.000000 0.000000 -2.786119
v 0.866025 0.000000 -2.286119
v 0.500000 0.000000 -1.920094
v -0.500000 0.898575 -1.920094
v 0.000000 0.898575 -1.786119
v -0.866025 0.356719 -2.286119
v -1.000000 0.356719 -2.786119
v -0.866025 0.356719 -3.286119
v -0.500000 0.356719 -3.652144
v 0.000000 0.356719 -3.786119
v 0.500000 0.356719 -3.652144
v 0.866025 0.356719 -3.286119
v 1.000000 0.356719 -2.786119
v 0.866025 0.356719 -2.286119
v 0.500000 0.898575 -1.920094
v -0.304856 1.404919 -1.934475
v -0.000000 1.404919 -1.852789
v -0.528026 1.119037 -2.157645
v -0.609712 1.119037 -2.462501
v -0.528026 1.119037 -2.767357
v -0.304856 1.119037 -2.990527
v -0.000000 1.119037 -3.072213
v 0.304856 1.119037 -2.990527
v 0.528026 1.119037 -2.767357
v 0.609712 1.119037 -2.462501
v 0.528026 1.119037 -2.157645
v 0.304856 1.404919 -1.934475
v -0.000000 1.324762 -2.462501
v 0.304856 1.324762 -2.462501
v -0.304856 1.324762 -2.462501
vn -0.0000 -1.0000 -0.0000
vn 0.1919 0.6708 0.7163
vn -0.7071 -0.0000 -0.7071
vn 0.9659 -0.0000 0.2588
vn -0.2588 -0.0000 0.9659
vn -0.9659 -0.0000 -0.2588
vn 0.9659 -0.0000 -0.2588
vn 0.2588 -0.0000 0.9659
vn -0.9659 -0.0000 0.2588
vn 0.7071 -0.0000 -0.7071
vn -0.2588 -0.0000 -0.9659
vn 0.7071 -0.0000 0.7071
vn -0.7071 -0.0000 0.7071
vn 0.2588 -0.0000 -0.9659
vn 0.4429 0.8593 0.2557
vn -0.8267 0.5173 0.2215
vn 0.8566 0.3239 -0.4016
vn -0.0044 0.9995 0.0327
vn 0.5536 0.6222 0.5536
vn -0.5536 0.6222 0.5536
vn 0.0044 0.9995 0.0327
vn -0.8566 0.3239 -0.4016
vn 0.8267 0.5173 0.2215
vn -0.1919 0.6708 0.7163
vn -0.9015 0.3590 -0.2416
vn 0.9015 0.3590 -0.2416
vn -0.4429 0.8593 0.2557
vn 0.6806 0.7327 0.0038
vn -0.6806 0.7327 0.0038
vn -0.0187 0.9900 0.1395
vn 0.0455 0.9394 0.3397
vn -0.0455 0.9394 0.3397
vn 0.0187 0.9900 0.1395
vn -0.0080 -0.9982 -0.0596
vn 0.0080 -0.9982 -0.0596
vn -0.9269 0.3750 0.0168
vn 0.9269 0.3750 0.0168
vn 0.1919 0.6708 -0.7163
vn 0.4429 0.8593 -0.2557
vn -0.8267 0.5173 -0.2215
vn 0.8566 0.3239 0.4016
vn -0.0044 0.9995 -0.0327
vn 0.5536 0.6222 -0.5536
vn -0.5536 0.6222 -0.5536
vn 0.0044 0.9995 -0.0327
vn -0.8566 0.3239 0.4016
vn 0.8267 0.5173 -0.2215
vn -0.1919 0.6708 -0.7163
vn -0.9015 0.3590 0.2416
vn 0.9015 0.3590 0.2416
vn -0.4429 0.8593 -0.2557
vn 0.6806 0.7327 -0.0038
vn -0.6806 0.7327 -0.0038
vn -0.0187 0.9900 -0.1395
vn 0.0455 0.9394 -0.3397
vn -0.0455 0.9394 -0.3397
vn 0.0187 0.9900 -0.1395
vn -0.0080 -0.9982 0.0596
vn 0.0080 -0.9982 0.0596
vn -0.9269 0.3750 -0.0168
vn 0.9269 0.3750 -0.0168
vt 0.000000 0.000000
vt 0.000000 0.000000
vt 0.000000 0.000000
vt 0.000000 0.000000
vt 0.000000 0.000000
vt 0.000000 0.000000
vt 0.000000 0.000000
vt 0.000000 0.000000
vt 0.000000 0.000000
vt 0.000000 0.000000
vt 0.000000 0.000000
vt 0.000000 0.000000
vt 0.000000 0.000000
vt 0.000000 0.000000
vt 0.000000 0.000000
vt 0.000000 0.000000
vt 0.000000 0.000000
vt 0.000000 0.000000
vt 0.000000 0.000000
vt 0.000000 0.000000
vt 0.000000 0.000000
vt 0.000000 0.000000
vt 0.000000 0.000000
vt 0.000000 0.000000
vt 0.000000 0.000000
vt 0.000000 0.000000
vt 0.000000 0.000000
vt 0.000000 0.000000
vt 0.000000 0.000000
vt 0.000000 0.000000
vt 0.000000 0.000000
vt 0.000000 0.000000
vt 0.000000 0.000000
vt 0.000000 0.000000
vt 0.000000 0.000000
vt 0.000000 0.000000
vt 0.000000 0.000000
vt 0.000000 0.000000
vt 0.000000 0.000000
vt 0.000000 0.000000
vt 0.000000 0.000000
vt 0.000000 0.000000
vt 0.000000 0.000000
vt 0.000000 0.000000
vt 0.000000 0.000000
vt 0.000000 0.000000
vt 0.000000 0.000000
vt 0.000000 0.000000
vt 0.000000 0.000000
vt 0.000000 0.000000
vt 0.000000 0.000000
vt 0.000000 0.000000
vt 0.000000 0.000000
vt 0.000000 0.000000
vt 0.000000 0.000000
vt 0.000000 0.000000
vt 0.000000 0.000000
vt 0.000000 0.000000
vt 0.000000 0.000000
vt 0.000000 0.000000
vt 0.000000 0.000000
vt 0.000000 0.000000
vt 0.000000 0.000000
vt 0.000000 0.000000
vt 0.000000 0.000000
vt 0.000000 0.000000
vt 0.000000 0.000000
vt 0.000000 0.000000
vt 0.000000 0.000000
vt 0.000000 0.000000
vt 0.000000 0.000000
vt 0.000000 0.000000
vt 0.000000 0.000000
vt 0.000000 0.000000
vt 0.000000 0.000000
vt 0.000000 0.000000
vt 0.000000 0.000000
vt 0.000000 0.000000
vt 0.000000 0.000000
vt 0.000000 0.000000
vt 0.000000 0.000000
vt 0.000000 0.000000
vt 0.000000 0.000000
vt 0.000000 0.000000
s 0
f 2/2/1 1/1/1 12/12/1 11/11/1 10/10/1 9/9/1 8/8/1 7/7/1 6/6/1 5/5/1 4/4/1 3/3/1
f 19/19/2 20/20/2 32/32/2 31/31/2
f 2/2/3 3/3/3 15/15/3 13/13/3
f 9/9/4 10/10/4 22/22/4 21/21/4
f 6/6/5 7/7/5 19/19/5 18/18/5
f 3/3/6 4/4/6 16/16/6 15/15/6
f 10/10/7 11/11/7 23/23/7 22/22/7
f 7/7/8 8/8/8 20/20/8 19/19/8
f 4/4/9 5/5/9 17/17/9 16/16/9
f 11/11/10 12/12/10 24/24/10 23/23/10
f 1/1/11 2/2/11 13/13/11 14/14/11
f 8/8/12 9/9/12 21/21/12 20/20/12
f 5/5/13 6/6/13 18/18/13 17/17/13
f 12/12/14 1/1/14 14/14/14 24/24/14
f 38/38/15 32/32/15 33/33/15 34/34/15
f 16/16/16 17/17/16 29/29/16 28/28/16
f 23/23/17 24/24/17 36/36/17 35/35/17
f 26/26/18 36/36/18 45/45/18 44/44/18
f 20/20/19 21/21/19 33/33/19 32/32/19
f 17/17/20 18/18/20 30/30/20 29/29/20
f 25/25/21 26/26/21 44/44/21 43/43/21
f 13/13/22 15/15/22 27/27/22 25/25/22
f 21/21/23 22/22/23 34/34/23 33/33/23
f 18/18/24 19/19/24 31/31/24 30/30/24
f 15/15/25 16/16/25 28/28/25 27/27/25
f 22/22/26 23/23/26 35/35/26 34/34/26
f 39/39/27 28/28/27 29/29/27 30/30/27
f 36/36/28 38/38/28 34/34/28 35/35/28
f 25/25/29 27/27/29 28/28/29 39/39/29
f 26/26/30 37/37/30 38/38/30 36/36/30
f 37/37/31 31/31/31 32/32/31 38/38/31
f 37/37/32 39/39/32 30/30/32 31/31/32
f 26/26/33 25/25/33 39/39/33 37/37/33
f 14/14/34 13/13/34 40/40/34 41/41/34
f 24/24/35 14/14/35 41/41/35 42/42/35
f 13/13/36 25/25/36 43/43/36 40/40/36
f 36/36/37 24/24/37 42/42/37 45/45/37
f 47/47/1 48/48/1 49/49/1 50/50/1 51/51/1 52/52/1 53/53/1 54/54/1 55/55/1 56/56/1 57/57/1 46/46/1
f 64/64/38 76/76/38 77/77/38 65/65/38
f 47/47/13 58/58/13 60/60/13 48/48/13
f 54/54/7 66/66/7 67/67/7 55/55/7
f 51/51/11 63/63/11 64/64/11 52/52/11
f 48/48/9 60/60/9 61/61/9 49/49/9
f 55/55/4 67/67/4 68/68/4 56/56/4
f 52/52/14 64/64/14 65/65/14 53/53/14
f 49/49/6 61/61/6 62/62/6 50/50/6
f 56/56/12 68/68/12 69/69/12 57/57/12
f 46/46/5 59/59/5 58/58/5 47/47/5
f 53/53/10 65/65/10 66/66/10 54/54/10
f 50/50/3 62/62/3 63/63/3 51/51/3
f 57/57/8 69/69/8 59/59/8 46/46/8
f 83/83/39 79/79/39 78/78/39 77/77/39
f 61/61/40 73/73/40 74/74/40 62/62/40
f 68/68/41 80/80/41 81/81/41 69/69/41
f 71/71/42 44/44/42 45/45/42 81/81/42
f 65/65/43 77/77/43 78/78/43 66/66/43
f 62/62/44 74/74/44 75/75/44 63/63/44
f 70/70/45 43/43/45 44/44/45 71/71/45
f 58/58/46 70/70/46 72/72/46 60/60/46
f 66/66/47 78/78/47 79/79/47 67/67/47
f 63/63/48 75/75/48 76/76/48 64/64/48
f 60/60/49 72/72/49 73/73/49 61/61/49
f 67/67/50 79/79/50 80/80/50 68/68/50
f 84/84/51 75/75/51 74/74/51 73/73/51
f 81/81/52 80/80/52 79/79/52 83/83/52
f 70/70/53 84/84/53 73/73/53 72/72/53
f 71/71/54 81/81/54 83/83/54 82/82/54
f 82/82/55 83/83/55 77/77/55 76/76/55
f 82/82/56 76/76/56 75/75/56 84/84/56
f 71/71/57 82/82/57 84/84/57 70/70/57
f 59/59/58 41/41/58 40/40/58 58/58/58
f 69/69/59 42/42/59 41/41/59 59/59/59
f 58/58/60 40/40/60 43/43/60 70/70/60
f 81/81/61 45/45/61 42/42/61 69/69/61
